ffmpeg started on 2025-05-13 at 10:43:38
Report written to "D:\Convert\FFMetrics\reports\psnr_report-6.txt"
Log level: 32
Command line:
ffmpeg -hide_banner -nostdin -i "G:\\\xc0\xed\xe8\xec\xe5\\\xce\xed\xe3\xee\xe8\xed\xe3\xe8\\!_35_\xcb\xe5\xf2\xee_2024\\DreamCast-1\\\xdf \xf1\xf2\xe0\xeb \xf1\xe0\xec\xfb\xec \xf1\xe8\xeb\xfc\xed\xfb\xec \xf1 \xef\xf0\xee\xe2\xe0\xeb\xfc\xed\xfb\xec \xed\xe0\xe2\xfb\xea\xee\xec \xab\xed\xe5\xed\xee\xf0\xec\xe0\xeb\xfc\xed\xee\xe5 \xf1\xee\xf1\xf2\xee\xff\xed\xe8\xe5\xbb, \xff \xf0\xe0\xe7\xf0\xf3\xf8\xf3 \xe2\xf1\xb8\\[DC] Hazurewaku - 05_Telegram_HEVC.mkv" -i "G:\\\xc0\xed\xe8\xec\xe5\\\xce\xed\xe3\xee\xe8\xed\xe3\xe8\\!_35_\xcb\xe5\xf2\xee_2024\\DreamCast-1\\\xdf \xf1\xf2\xe0\xeb \xf1\xe0\xec\xfb\xec \xf1\xe8\xeb\xfc\xed\xfb\xec \xf1 \xef\xf0\xee\xe2\xe0\xeb\xfc\xed\xfb\xec \xed\xe0\xe2\xfb\xea\xee\xec \xab\xed\xe5\xed\xee\xf0\xec\xe0\xeb\xfc\xed\xee\xe5 \xf1\xee\xf1\xf2\xee\xff\xed\xe8\xe5\xbb, \xff \xf0\xe0\xe7\xf0\xf3\xf8\xf3 \xe2\xf1\xb8\\[DC] Hazurewaku - 05_Telegram.mp4" -lavfi "[0:v]settb=AVTB,setpts=PTS-STARTPTS,format=pix_fmts=yuv420p10,fps=24000/1001,scale=1920:1080:flags=bicubic[main];[1:v]settb=AVTB,setpts=PTS-STARTPTS,format=pix_fmts=yuv420p,fps=24000/1001,scale=1920:1080:flags=bicubic[ref];[main][ref]psnr=eof_action=endall:stats_file='D\\:/Convert/FFMetrics/logs/psnr_logfile-6.txt'" -f null -
Input #0, matroska,webm, from 'G:\Аниме\Онгоинги\!_35_Лето_2024\DreamCast-1\Я стал самым сильным с провальным навыком «ненормальное состояние», я разрушу всё\[DC] Hazurewaku - 05_Telegram_HEVC.mkv':
  Metadata:
    COMPATIBLE_BRANDS: isomiso2avc1mp41
    MAJOR_BRAND     : isom
    MINOR_VERSION   : 512
    ENCODER         : Lavf61.7.100
  Duration: 00:24:17.71, start: -0.021000, bitrate: 1293 kb/s
  Stream #0:0: Video: hevc (Main 10), yuv420p10le(tv, bt709, progressive), 1920x1080 [SAR 1:1 DAR 16:9], 23.98 fps, 23.98 tbr, 1k tbn (default)
      Metadata:
        HANDLER_NAME    : VideoHandler
        VENDOR_ID       : [0][0][0][0]
        ENCODER         : Lavc61.19.100 libx265
        BPS             : 1096890
        DURATION        : 00:24:16.538708333
        NUMBER_OF_FRAMES: 34922
        NUMBER_OF_BYTES : 199707822
        _STATISTICS_WRITING_APP: mkvpropedit v66.0.0 ('Josie') 64-bit
        _STATISTICS_WRITING_DATE_UTC: 2025-05-11 15:06:16
        _STATISTICS_TAGS: BPS DURATION NUMBER_OF_FRAMES NUMBER_OF_BYTES
  Stream #0:1: Audio: aac (LC), 48000 Hz, stereo, fltp (default)
      Metadata:
        HANDLER_NAME    : SoundHandler
        VENDOR_ID       : [0][0][0][0]
        ENCODER         : Lavc61.19.100 aac
        BPS             : 193327
        DURATION        : 00:24:17.706000000
        NUMBER_OF_FRAMES: 68331
        NUMBER_OF_BYTES : 35226839
        _STATISTICS_WRITING_APP: mkvpropedit v66.0.0 ('Josie') 64-bit
        _STATISTICS_WRITING_DATE_UTC: 2025-05-11 15:06:16
        _STATISTICS_TAGS: BPS DURATION NUMBER_OF_FRAMES NUMBER_OF_BYTES
Input #1, mov,mp4,m4a,3gp,3g2,mj2, from 'G:\Аниме\Онгоинги\!_35_Лето_2024\DreamCast-1\Я стал самым сильным с провальным навыком «ненормальное состояние», я разрушу всё\[DC] Hazurewaku - 05_Telegram.mp4':
  Metadata:
    major_brand     : isom
    minor_version   : 512
    compatible_brands: isomiso2avc1mp41
    encoder         : Lavf61.1.100
  Duration: 00:24:17.65, start: 0.000000, bitrate: 3267 kb/s
  Stream #1:0[0x1](und): Video: h264 (High) (avc1 / 0x31637661), yuv420p(tv, bt709, progressive), 1920x1080 [SAR 1:1 DAR 16:9], 3122 kb/s, 23.98 fps, 23.98 tbr, 24k tbn (default)
      Metadata:
        handler_name    : VideoHandler
        vendor_id       : [0][0][0][0]
        encoder         : Lavc61.3.100 h264_qsv
  Stream #1:1[0x2](und): Audio: aac (HE-AACv2) (mp4a / 0x6134706D), 48000 Hz, stereo, fltp, 144 kb/s (default)
      Metadata:
        handler_name    : SoundHandler
        vendor_id       : [0][0][0][0]
Stream mapping:
  Stream #0:0 (hevc) -> settb:default
  Stream #1:0 (h264) -> settb:default
  psnr:default -> Stream #0:0 (wrapped_avframe)
  Stream #0:1 -> #0:1 (aac (native) -> pcm_s16le (native))
Output #0, null, to 'pipe:':
  Metadata:
    COMPATIBLE_BRANDS: isomiso2avc1mp41
    MAJOR_BRAND     : isom
    MINOR_VERSION   : 512
    encoder         : Lavf61.7.100
  Stream #0:0: Video: wrapped_avframe, yuv420p10le(tv, bt709, progressive), 1920x1080 [SAR 1:1 DAR 16:9], q=2-31, 200 kb/s, 23.98 fps, 23.98 tbn
      Metadata:
        encoder         : Lavc61.19.100 wrapped_avframe
  Stream #0:1: Audio: pcm_s16le, 48000 Hz, stereo, s16, 1536 kb/s (default)
      Metadata:
        HANDLER_NAME    : SoundHandler
        VENDOR_ID       : [0][0][0][0]
        _STATISTICS_TAGS: BPS DURATION NUMBER_OF_FRAMES NUMBER_OF_BYTES
        BPS             : 193327
        DURATION        : 00:24:17.706000000
        NUMBER_OF_FRAMES: 68331
        NUMBER_OF_BYTES : 35226839
        _STATISTICS_WRITING_APP: mkvpropedit v66.0.0 ('Josie') 64-bit
        _STATISTICS_WRITING_DATE_UTC: 2025-05-11 15:06:16
        encoder         : Lavc61.19.100 pcm_s16le
frame=  176 fps=0.0 q=-0.0 size=N/A time=00:00:07.34 bitrate=N/A speed=14.2x    frame=  435 fps=416 q=-0.0 size=N/A time=00:00:18.14 bitrate=N/A speed=17.4x    frame=  678 fps=437 q=-0.0 size=N/A time=00:00:28.27 bitrate=N/A speed=18.2x    frame=  910 fps=439 q=-0.0 size=N/A time=00:00:37.95 bitrate=N/A speed=18.3x    frame= 1142 fps=442 q=-0.0 size=N/A time=00:00:47.63 bitrate=N/A speed=18.4x    frame= 1372 fps=442 q=-0.0 size=N/A time=00:00:57.22 bitrate=N/A speed=18.4x    frame= 1613 fps=447 q=-0.0 size=N/A time=00:01:07.27 bitrate=N/A speed=18.6x    frame= 1879 fps=454 q=-0.0 size=N/A time=00:01:18.36 bitrate=N/A speed=18.9x    frame= 2131 fps=459 q=-0.0 size=N/A time=00:01:28.88 bitrate=N/A speed=19.2x    frame= 2381 fps=461 q=-0.0 size=N/A time=00:01:39.30 bitrate=N/A speed=19.2x    frame= 2620 fps=462 q=-0.0 size=N/A time=00:01:49.27 bitrate=N/A speed=19.3x    frame= 2872 fps=464 q=-0.0 size=N/A time=00:01:59.78 bitrate=N/A speed=19.3x    frame= 3119 fps=465 q=-0.0 size=N/A time=00:02:10.08 bitrate=N/A speed=19.4x    frame= 3357 fps=464 q=-0.0 size=N/A time=00:02:20.01 bitrate=N/A speed=19.4x    frame= 3501 fps=452 q=-0.0 size=N/A time=00:02:26.02 bitrate=N/A speed=18.8x    frame= 3709 fps=449 q=-0.0 size=N/A time=00:02:34.69 bitrate=N/A speed=18.7x    frame= 3911 fps=446 q=-0.0 size=N/A time=00:02:43.12 bitrate=N/A speed=18.6x    frame= 4125 fps=444 q=-0.0 size=N/A time=00:02:52.04 bitrate=N/A speed=18.5x    frame= 4290 fps=437 q=-0.0 size=N/A time=00:02:58.92 bitrate=N/A speed=18.2x    frame= 4458 fps=432 q=-0.0 size=N/A time=00:03:05.93 bitrate=N/A speed=  18x    frame= 4628 fps=427 q=-0.0 size=N/A time=00:03:13.02 bitrate=N/A speed=17.8x    frame= 4807 fps=424 q=-0.0 size=N/A time=00:03:20.49 bitrate=N/A speed=17.7x    frame= 5014 fps=422 q=-0.0 size=N/A time=00:03:29.12 bitrate=N/A speed=17.6x    frame= 5215 fps=421 q=-0.0 size=N/A time=00:03:37.50 bitrate=N/A speed=17.6x    frame= 5395 fps=418 q=-0.0 size=N/A time=00:03:45.01 bitrate=N/A speed=17.4x    frame= 5614 fps=418 q=-0.0 size=N/A time=00:03:54.15 bitrate=N/A speed=17.4x    frame= 5861 fps=421 q=-0.0 size=N/A time=00:04:04.45 bitrate=N/A speed=17.5x    frame= 6123 fps=424 q=-0.0 size=N/A time=00:04:15.38 bitrate=N/A speed=17.7x    frame= 6383 fps=427 q=-0.0 size=N/A time=00:04:26.22 bitrate=N/A speed=17.8x    frame= 6646 fps=429 q=-0.0 size=N/A time=00:04:37.19 bitrate=N/A speed=17.9x    frame= 6908 fps=432 q=-0.0 size=N/A time=00:04:48.12 bitrate=N/A speed=  18x    frame= 7170 fps=434 q=-0.0 size=N/A time=00:04:59.04 bitrate=N/A speed=18.1x    frame= 7392 fps=434 q=-0.0 size=N/A time=00:05:08.30 bitrate=N/A speed=18.1x    frame= 7615 fps=434 q=-0.0 size=N/A time=00:05:17.60 bitrate=N/A speed=18.1x    frame= 7845 fps=434 q=-0.0 size=N/A time=00:05:27.20 bitrate=N/A speed=18.1x    frame= 8025 fps=432 q=-0.0 size=N/A time=00:05:34.70 bitrate=N/A speed=  18x    frame= 8264 fps=433 q=-0.0 size=N/A time=00:05:44.67 bitrate=N/A speed=18.1x    frame= 8508 fps=434 q=-0.0 size=N/A time=00:05:54.85 bitrate=N/A speed=18.1x    frame= 8727 fps=433 q=-0.0 size=N/A time=00:06:03.98 bitrate=N/A speed=18.1x    frame= 8998 fps=436 q=-0.0 size=N/A time=00:06:15.29 bitrate=N/A speed=18.2x    frame= 9273 fps=438 q=-0.0 size=N/A time=00:06:26.76 bitrate=N/A speed=18.3x    frame= 9542 fps=440 q=-0.0 size=N/A time=00:06:37.98 bitrate=N/A speed=18.3x    frame= 9805 fps=441 q=-0.0 size=N/A time=00:06:48.95 bitrate=N/A speed=18.4x    frame=10049 fps=442 q=-0.0 size=N/A time=00:06:59.12 bitrate=N/A speed=18.4x    frame=10313 fps=444 q=-0.0 size=N/A time=00:07:10.13 bitrate=N/A speed=18.5x    frame=10557 fps=445 q=-0.0 size=N/A time=00:07:20.31 bitrate=N/A speed=18.5x    frame=10825 fps=446 q=-0.0 size=N/A time=00:07:31.49 bitrate=N/A speed=18.6x    frame=11055 fps=446 q=-0.0 size=N/A time=00:07:41.08 bitrate=N/A speed=18.6x    frame=11327 fps=448 q=-0.0 size=N/A time=00:07:52.43 bitrate=N/A speed=18.7x    frame=11587 fps=449 q=-0.0 size=N/A time=00:08:03.27 bitrate=N/A speed=18.7x    frame=11851 fps=450 q=-0.0 size=N/A time=00:08:14.28 bitrate=N/A speed=18.8x    frame=12115 fps=451 q=-0.0 size=N/A time=00:08:25.29 bitrate=N/A speed=18.8x    frame=12370 fps=452 q=-0.0 size=N/A time=00:08:35.93 bitrate=N/A speed=18.9x    frame=12643 fps=453 q=-0.0 size=N/A time=00:08:47.31 bitrate=N/A speed=18.9x    frame=12921 fps=455 q=-0.0 size=N/A time=00:08:58.91 bitrate=N/A speed=  19x    frame=13170 fps=455 q=-0.0 size=N/A time=00:09:09.29 bitrate=N/A speed=  19x    frame=13424 fps=456 q=-0.0 size=N/A time=00:09:19.93 bitrate=N/A speed=  19x    frame=13691 fps=457 q=-0.0 size=N/A time=00:09:31.02 bitrate=N/A speed=19.1x    frame=13952 fps=458 q=-0.0 size=N/A time=00:09:41.91 bitrate=N/A speed=19.1x    frame=14224 fps=459 q=-0.0 size=N/A time=00:09:53.25 bitrate=N/A speed=19.1x    frame=14484 fps=460 q=-0.0 size=N/A time=00:10:04.10 bitrate=N/A speed=19.2x    frame=14732 fps=460 q=-0.0 size=N/A time=00:10:14.44 bitrate=N/A speed=19.2x    frame=14997 fps=461 q=-0.0 size=N/A time=00:10:25.49 bitrate=N/A speed=19.2x    frame=15259 fps=462 q=-0.0 size=N/A time=00:10:36.42 bitrate=N/A speed=19.3x    frame=15535 fps=463 q=-0.0 size=N/A time=00:10:47.93 bitrate=N/A speed=19.3x    frame=15786 fps=463 q=-0.0 size=N/A time=00:10:58.40 bitrate=N/A speed=19.3x    frame=16024 fps=463 q=-0.0 size=N/A time=00:11:08.33 bitrate=N/A speed=19.3x    frame=16272 fps=464 q=-0.0 size=N/A time=00:11:18.67 bitrate=N/A speed=19.3x    frame=16532 fps=464 q=-0.0 size=N/A time=00:11:29.52 bitrate=N/A speed=19.4x    frame=16805 fps=465 q=-0.0 size=N/A time=00:11:40.90 bitrate=N/A speed=19.4x    frame=17063 fps=466 q=-0.0 size=N/A time=00:11:51.66 bitrate=N/A speed=19.4x    frame=17315 fps=466 q=-0.0 size=N/A time=00:12:02.17 bitrate=N/A speed=19.4x    frame=17589 fps=467 q=-0.0 size=N/A time=00:12:13.60 bitrate=N/A speed=19.5x    frame=17859 fps=467 q=-0.0 size=N/A time=00:12:24.86 bitrate=N/A speed=19.5x    frame=18105 fps=468 q=-0.0 size=N/A time=00:12:35.12 bitrate=N/A speed=19.5x    frame=18360 fps=468 q=-0.0 size=N/A time=00:12:45.76 bitrate=N/A speed=19.5x    frame=18631 fps=469 q=-0.0 size=N/A time=00:12:57.06 bitrate=N/A speed=19.5x    frame=18911 fps=470 q=-0.0 size=N/A time=00:13:08.74 bitrate=N/A speed=19.6x    frame=19152 fps=470 q=-0.0 size=N/A time=00:13:18.79 bitrate=N/A speed=19.6x    frame=19412 fps=470 q=-0.0 size=N/A time=00:13:29.64 bitrate=N/A speed=19.6x    frame=19685 fps=471 q=-0.0 size=N/A time=00:13:41.02 bitrate=N/A speed=19.6x    frame=19924 fps=471 q=-0.0 size=N/A time=00:13:50.99 bitrate=N/A speed=19.6x    frame=20151 fps=470 q=-0.0 size=N/A time=00:14:00.46 bitrate=N/A speed=19.6x    frame=20395 fps=470 q=-0.0 size=N/A time=00:14:10.64 bitrate=N/A speed=19.6x    frame=20608 fps=470 q=-0.0 size=N/A time=00:14:19.52 bitrate=N/A speed=19.6x    frame=20838 fps=469 q=-0.0 size=N/A time=00:14:29.11 bitrate=N/A speed=19.6x    frame=21071 fps=469 q=-0.0 size=N/A time=00:14:38.83 bitrate=N/A speed=19.6x    frame=21303 fps=469 q=-0.0 size=N/A time=00:14:48.51 bitrate=N/A speed=19.6x    frame=21501 fps=468 q=-0.0 size=N/A time=00:14:56.77 bitrate=N/A speed=19.5x    frame=21730 fps=468 q=-0.0 size=N/A time=00:15:06.32 bitrate=N/A speed=19.5x    frame=21990 fps=468 q=-0.0 size=N/A time=00:15:17.16 bitrate=N/A speed=19.5x    frame=22247 fps=468 q=-0.0 size=N/A time=00:15:27.88 bitrate=N/A speed=19.5x    frame=22489 fps=468 q=-0.0 size=N/A time=00:15:37.97 bitrate=N/A speed=19.5x    frame=22748 fps=469 q=-0.0 size=N/A time=00:15:48.78 bitrate=N/A speed=19.5x    frame=23025 fps=469 q=-0.0 size=N/A time=00:16:00.33 bitrate=N/A speed=19.6x    frame=23301 fps=470 q=-0.0 size=N/A time=00:16:11.84 bitrate=N/A speed=19.6x    frame=23562 fps=470 q=-0.0 size=N/A time=00:16:22.73 bitrate=N/A speed=19.6x    frame=23840 fps=471 q=-0.0 size=N/A time=00:16:34.32 bitrate=N/A speed=19.7x    frame=24125 fps=472 q=-0.0 size=N/A time=00:16:46.21 bitrate=N/A speed=19.7x    frame=24393 fps=472 q=-0.0 size=N/A time=00:16:57.39 bitrate=N/A speed=19.7x    frame=24658 fps=473 q=-0.0 size=N/A time=00:17:08.44 bitrate=N/A speed=19.7x    frame=24923 fps=473 q=-0.0 size=N/A time=00:17:19.49 bitrate=N/A speed=19.7x    frame=25187 fps=474 q=-0.0 size=N/A time=00:17:30.50 bitrate=N/A speed=19.8x    frame=25425 fps=474 q=-0.0 size=N/A time=00:17:40.43 bitrate=N/A speed=19.8x    frame=25670 fps=473 q=-0.0 size=N/A time=00:17:50.65 bitrate=N/A speed=19.7x    frame=25882 fps=473 q=-0.0 size=N/A time=00:17:59.49 bitrate=N/A speed=19.7x    frame=26105 fps=473 q=-0.0 size=N/A time=00:18:08.79 bitrate=N/A speed=19.7x    frame=26324 fps=472 q=-0.0 size=N/A time=00:18:17.93 bitrate=N/A speed=19.7x    frame=26591 fps=473 q=-0.0 size=N/A time=00:18:29.06 bitrate=N/A speed=19.7x    frame=26797 fps=472 q=-0.0 size=N/A time=00:18:37.65 bitrate=N/A speed=19.7x    frame=26962 fps=471 q=-0.0 size=N/A time=00:18:44.54 bitrate=N/A speed=19.6x    frame=27153 fps=470 q=-0.0 size=N/A time=00:18:52.50 bitrate=N/A speed=19.6x    frame=27321 fps=468 q=-0.0 size=N/A time=00:18:59.51 bitrate=N/A speed=19.5x    frame=27480 fps=467 q=-0.0 size=N/A time=00:19:06.14 bitrate=N/A speed=19.5x    frame=27657 fps=466 q=-0.0 size=N/A time=00:19:13.52 bitrate=N/A speed=19.4x    frame=27860 fps=465 q=-0.0 size=N/A time=00:19:21.99 bitrate=N/A speed=19.4x    frame=28084 fps=465 q=-0.0 size=N/A time=00:19:31.33 bitrate=N/A speed=19.4x    frame=28305 fps=465 q=-0.0 size=N/A time=00:19:40.55 bitrate=N/A speed=19.4x    frame=28532 fps=464 q=-0.0 size=N/A time=00:19:50.02 bitrate=N/A speed=19.4x    frame=28759 fps=464 q=-0.0 size=N/A time=00:19:59.48 bitrate=N/A speed=19.4x    frame=28983 fps=464 q=-0.0 size=N/A time=00:20:08.83 bitrate=N/A speed=19.4x    frame=29252 fps=464 q=-0.0 size=N/A time=00:20:20.05 bitrate=N/A speed=19.4x    frame=29481 fps=464 q=-0.0 size=N/A time=00:20:29.60 bitrate=N/A speed=19.4x    frame=29708 fps=464 q=-0.0 size=N/A time=00:20:39.07 bitrate=N/A speed=19.4x    frame=29924 fps=464 q=-0.0 size=N/A time=00:20:48.08 bitrate=N/A speed=19.3x    frame=30175 fps=464 q=-0.0 size=N/A time=00:20:58.54 bitrate=N/A speed=19.4x    frame=30436 fps=464 q=-0.0 size=N/A time=00:21:09.43 bitrate=N/A speed=19.4x    frame=30685 fps=464 q=-0.0 size=N/A time=00:21:19.82 bitrate=N/A speed=19.4x    frame=30883 fps=464 q=-0.0 size=N/A time=00:21:28.07 bitrate=N/A speed=19.3x    frame=31121 fps=464 q=-0.0 size=N/A time=00:21:38.00 bitrate=N/A speed=19.3x    frame=31382 fps=464 q=-0.0 size=N/A time=00:21:48.89 bitrate=N/A speed=19.4x    frame=31630 fps=464 q=-0.0 size=N/A time=00:21:59.23 bitrate=N/A speed=19.4x    frame=31885 fps=464 q=-0.0 size=N/A time=00:22:09.87 bitrate=N/A speed=19.4x    frame=32133 fps=465 q=-0.0 size=N/A time=00:22:20.21 bitrate=N/A speed=19.4x    frame=32388 fps=465 q=-0.0 size=N/A time=00:22:30.84 bitrate=N/A speed=19.4x    frame=32623 fps=465 q=-0.0 size=N/A time=00:22:40.65 bitrate=N/A speed=19.4x    frame=32834 fps=464 q=-0.0 size=N/A time=00:22:49.45 bitrate=N/A speed=19.4x    frame=33014 fps=464 q=-0.0 size=N/A time=00:22:56.95 bitrate=N/A speed=19.3x    frame=33226 fps=463 q=-0.0 size=N/A time=00:23:05.80 bitrate=N/A speed=19.3x    frame=33438 fps=463 q=-0.0 size=N/A time=00:23:14.64 bitrate=N/A speed=19.3x    frame=33626 fps=462 q=-0.0 size=N/A time=00:23:22.48 bitrate=N/A speed=19.3x    frame=33789 fps=461 q=-0.0 size=N/A time=00:23:29.28 bitrate=N/A speed=19.2x    frame=33977 fps=460 q=-0.0 size=N/A time=00:23:37.12 bitrate=N/A speed=19.2x    frame=34173 fps=460 q=-0.0 size=N/A time=00:23:45.29 bitrate=N/A speed=19.2x    frame=34339 fps=459 q=-0.0 size=N/A time=00:23:52.22 bitrate=N/A speed=19.1x    frame=34507 fps=458 q=-0.0 size=N/A time=00:23:59.22 bitrate=N/A speed=19.1x    frame=34692 fps=457 q=-0.0 size=N/A time=00:24:06.94 bitrate=N/A speed=19.1x    [Parsed_psnr_10 @ 0000019af267aa40] PSNR y:47.882152 u:50.264824 v:51.144356 average:48.631126 min:39.710194 max:inf
[out#0/null @ 0000019af2636140] video:15006KiB audio:273324KiB subtitle:0KiB other streams:0KiB global headers:0KiB muxing overhead: unknown
frame=34922 fps=457 q=-0.0 Lsize=N/A time=00:24:16.53 bitrate=N/A speed=19.1x    
